<?xml version="1.0" encoding="UTF-8" standalone="no"?>
<!-- Created with Inkscape (http://www.inkscape.org/) -->

<svg
   xmlns:dc="http://purl.org/dc/elements/1.1/"
   xmlns:cc="http://creativecommons.org/ns#"
   xmlns:rdf="http://www.w3.org/1999/02/22-rdf-syntax-ns#"
   xmlns:svg="http://www.w3.org/2000/svg"
   xmlns="http://www.w3.org/2000/svg"
   xmlns:sodipodi="http://sodipodi.sourceforge.net/DTD/sodipodi-0.dtd"
   xmlns:inkscape="http://www.inkscape.org/namespaces/inkscape"
   id="svg2985"
   version="1.1"
   inkscape:version="0.48.2 r9819"
   width="689"
   height="543"
   sodipodi:docname="logic gates.jpg">
  <metadata
     id="metadata2991">
    <rdf:RDF>
      <cc:Work
         rdf:about="">
        <dc:format>image/svg+xml</dc:format>
        <dc:type
           rdf:resource="http://purl.org/dc/dcmitype/StillImage" />
        <dc:title></dc:title>
      </cc:Work>
    </rdf:RDF>
  </metadata>
  <defs
     id="defs2989" />
  <sodipodi:namedview
     pagecolor="#ffffff"
     bordercolor="#666666"
     borderopacity="1"
     objecttolerance="10"
     gridtolerance="10"
     guidetolerance="10"
     inkscape:pageopacity="0"
     inkscape:pageshadow="2"
     inkscape:window-width="1280"
     inkscape:window-height="738"
     id="namedview2987"
     showgrid="false"
     inkscape:zoom="1.6710775"
     inkscape:cx="115.08067"
     inkscape:cy="345.71336"
     inkscape:window-x="-8"
     inkscape:window-y="-8"
     inkscape:window-maximized="1"
     inkscape:current-layer="svg2985"
     showguides="true"
     inkscape:guide-bbox="true">
    <sodipodi:guide
       orientation="0,1"
       position="27.717965,524.53617"
       id="guide3998" />
    <sodipodi:guide
       orientation="1,0"
       position="-25.261943,335.42246"
       id="guide4002" />
    <sodipodi:guide
       orientation="0,1"
       position="-15.437854,479.62605"
       id="guide4044" />
    <sodipodi:guide
       orientation="1,0"
       position="125.09363,265.9176"
       id="guide4251" />
    <sodipodi:guide
       orientation="1,0"
       position="84.644195,243.07116"
       id="guide4253" />
    <sodipodi:guide
       orientation="0,1"
       position="-0.74906367,270.03745"
       id="guide4255" />
    <sodipodi:guide
       orientation="1,0"
       position="147.19101,292.50936"
       id="guide4257" />
  </sodipodi:namedview>
  <path
     style="fill:#000000"
     d="m 379.48227,188.3838 c 6.44683,-3.33378 8.8704,-12.71766 4.9466,-19.1529 -6.93695,-11.37699 -25.02364,-6.31934 -25.03674,7.00111 -0.0104,10.58872 10.64703,17.03502 20.09014,12.15179 z"
     id="path3899"
     inkscape:connector-curvature="0" />
  <path
     style="fill:none;stroke:#000000;stroke-width:5.90000009999999970;stroke-linecap:butt;stroke-linejoin:miter;stroke-miterlimit:4;stroke-opacity:1;stroke-dasharray:none"
     d="m 84.819955,23.142998 0,81.750452 43.155815,0 c 27.28077,0 37.95802,-23.187594 39.27326,-38.658643 1.33947,-15.756058 -15.24095,-43.348293 -39.27325,-43.091809 z"
     id="path3996"
     inkscape:connector-curvature="0"
     sodipodi:nodetypes="cccscc" />
  <path
     sodipodi:type="arc"
     style="color:#000000;fill:none;stroke:#000000;stroke-width:5.90000009999999970;stroke-linecap:butt;stroke-linejoin:round;stroke-miterlimit:4;stroke-opacity:1;stroke-dasharray:none;stroke-dashoffset:0;marker:none;visibility:visible;display:inline;overflow:visible;enable-background:accumulate"
     id="path4006"
     sodipodi:cx="17.718447"
     sodipodi:cy="36.883995"
     sodipodi:rx="13.508122"
     sodipodi:ry="13.508122"
     d="m 31.226569,36.883995 a 13.508122,13.508122 0 1 1 -27.0162447,0 13.508122,13.508122 0 1 1 27.0162447,0 z"
     transform="translate(6.9289644,5.3808886)" />
  <path
     sodipodi:type="arc"
     style="color:#000000;fill:none;stroke:#000000;stroke-width:5.90000009999999970;stroke-linecap:butt;stroke-linejoin:round;stroke-miterlimit:4;stroke-opacity:1;stroke-dasharray:none;stroke-dashoffset:0;marker:none;visibility:visible;display:inline;overflow:visible;enable-background:accumulate"
     id="path4006-2"
     sodipodi:cx="17.718447"
     sodipodi:cy="36.883995"
     sodipodi:rx="13.508122"
     sodipodi:ry="13.508122"
     d="m 31.226569,36.883995 a 13.508122,13.508122 0 1 1 -27.0162447,0 13.508122,13.508122 0 1 1 27.0162447,0 z"
     transform="translate(7.4552537,49.822162)" />
  <path
     sodipodi:type="arc"
     style="color:#000000;fill:none;stroke:#000000;stroke-width:5.90000009999999970;stroke-linecap:butt;stroke-linejoin:round;stroke-miterlimit:4;stroke-opacity:1;stroke-dasharray:none;stroke-dashoffset:0;marker:none;visibility:visible;display:inline;overflow:visible;enable-background:accumulate"
     id="path4006-2-3"
     sodipodi:cx="17.718447"
     sodipodi:cy="36.883995"
     sodipodi:rx="13.508122"
     sodipodi:ry="13.508122"
     d="m 31.226569,36.883995 a 13.508122,13.508122 0 1 1 -27.0162447,0 13.508122,13.508122 0 1 1 27.0162447,0 z"
     transform="translate(210.95424,26.958797)" />
  <path
     style="color:#000000;fill:none;stroke:#000000;stroke-width:5.90000009999999970;stroke-linecap:butt;stroke-linejoin:round;stroke-miterlimit:4;stroke-opacity:1;stroke-dasharray:none;stroke-dashoffset:0;marker:none;visibility:visible;display:inline;overflow:visible;enable-background:accumulate"
     d="m 82.819955,41.738588 c -45.611841,0 -43.611841,0 -43.611841,0"
     id="path4046"
     inkscape:connector-curvature="0"
     sodipodi:nodetypes="cc" />
  <path
     style="color:#000000;fill:none;stroke:#000000;stroke-width:5.90000009999999970;stroke-linecap:butt;stroke-linejoin:round;stroke-miterlimit:4;stroke-opacity:1;stroke-dasharray:none;stroke-dashoffset:0;marker:none;visibility:visible;display:inline;overflow:visible;enable-background:accumulate"
     d="m 82.803035,85.806455 c -45.611841,0 -41.611841,0 -41.611841,0"
     id="path4046-6"
     inkscape:connector-curvature="0"
     inkscape:transform-center-x="23.858502"
     inkscape:transform-center-y="-45.962701"
     sodipodi:nodetypes="cc" />
  <path
     style="color:#000000;fill:none;stroke:#000000;stroke-width:5.90000009999999970;stroke-linecap:butt;stroke-linejoin:round;stroke-miterlimit:4;stroke-opacity:1;stroke-dasharray:none;stroke-dashoffset:0;marker:none;visibility:visible;display:inline;overflow:visible;enable-background:accumulate"
     d="m 212.67393,63.37395 c -45.61184,0 -43.61184,0 -43.61184,0"
     id="path4046-8"
     inkscape:connector-curvature="0"
     sodipodi:nodetypes="cc" />
  <path
     sodipodi:type="arc"
     style="color:#000000;fill:#5a70db;fill-opacity:1;stroke:none;stroke-width:5.9000001;marker:none;visibility:visible;display:inline;overflow:visible;enable-background:accumulate"
     id="path4108"
     sodipodi:cx="17.718447"
     sodipodi:cy="15.130654"
     sodipodi:rx="11.753821"
     sodipodi:ry="11.40296"
     d="m 29.472268,15.130654 a 11.753821,11.40296 0 1 1 -23.5076426,0 11.753821,11.40296 0 1 1 23.5076426,0 z"
     transform="translate(6.6663462,26.665387)" />
  <path
     sodipodi:type="arc"
     style="color:#000000;fill:#5a70db;fill-opacity:1;stroke:none;stroke-width:5.9000001;marker:none;visibility:visible;display:inline;overflow:visible;enable-background:accumulate"
     id="path4108-7"
     sodipodi:cx="17.718447"
     sodipodi:cy="15.130654"
     sodipodi:rx="11.753821"
     sodipodi:ry="11.40296"
     d="m 29.472268,15.130654 a 11.753821,11.40296 0 1 1 -23.5076426,0 11.753821,11.40296 0 1 1 23.5076426,0 z"
     transform="translate(7.1926358,71.575504)" />
  <path
     sodipodi:type="arc"
     style="color:#000000;fill:#5a70db;fill-opacity:1;stroke:none;stroke-width:5.9000001;marker:none;visibility:visible;display:inline;overflow:visible;enable-background:accumulate"
     id="path4108-1"
     sodipodi:cx="17.718447"
     sodipodi:cy="15.130654"
     sodipodi:rx="11.753821"
     sodipodi:ry="11.40296"
     d="m 29.472268,15.130654 a 11.753821,11.40296 0 1 1 -23.5076426,0 11.753821,11.40296 0 1 1 23.5076426,0 z"
     transform="translate(211.04248,48.243296)" />
  <path
     style="fill:none;stroke:#000000;stroke-width:5.9000001;stroke-linecap:butt;stroke-linejoin:miter;stroke-miterlimit:4;stroke-opacity:1;stroke-dasharray:none"
     d="m 82.803036,121.79308 0,81.75045 43.155814,0 c 27.28077,0 37.95802,-23.1876 39.27326,-38.65865 1.33947,-15.75605 -15.24095,-43.34829 -39.27325,-43.0918 z"
     id="path3996-2"
     inkscape:connector-curvature="0"
     sodipodi:nodetypes="cccscc" />
  <path
     sodipodi:type="arc"
     style="color:#000000;fill:none;stroke:#000000;stroke-width:5.9000001;stroke-linecap:butt;stroke-linejoin:round;stroke-miterlimit:4;stroke-opacity:1;stroke-dasharray:none;stroke-dashoffset:0;marker:none;visibility:visible;display:inline;overflow:visible;enable-background:accumulate"
     id="path4006-6"
     sodipodi:cx="17.718447"
     sodipodi:cy="36.883995"
     sodipodi:rx="13.508122"
     sodipodi:ry="13.508122"
     d="m 31.226569,36.883995 a 13.508122,13.508122 0 1 1 -27.0162447,0 13.508122,13.508122 0 1 1 27.0162447,0 z"
     transform="translate(4.912044,104.03097)" />
  <path
     sodipodi:type="arc"
     style="color:#000000;fill:none;stroke:#000000;stroke-width:5.9000001;stroke-linecap:butt;stroke-linejoin:round;stroke-miterlimit:4;stroke-opacity:1;stroke-dasharray:none;stroke-dashoffset:0;marker:none;visibility:visible;display:inline;overflow:visible;enable-background:accumulate"
     id="path4006-2-0"
     sodipodi:cx="17.718447"
     sodipodi:cy="36.883995"
     sodipodi:rx="13.508122"
     sodipodi:ry="13.508122"
     d="m 31.226569,36.883995 a 13.508122,13.508122 0 1 1 -27.0162447,0 13.508122,13.508122 0 1 1 27.0162447,0 z"
     transform="translate(5.438334,148.47224)" />
  <path
     sodipodi:type="arc"
     style="color:#000000;fill:none;stroke:#000000;stroke-width:5.9000001;stroke-linecap:butt;stroke-linejoin:round;stroke-miterlimit:4;stroke-opacity:1;stroke-dasharray:none;stroke-dashoffset:0;marker:none;visibility:visible;display:inline;overflow:visible;enable-background:accumulate"
     id="path4006-2-3-4"
     sodipodi:cx="17.718447"
     sodipodi:cy="36.883995"
     sodipodi:rx="13.508122"
     sodipodi:ry="13.508122"
     d="m 31.226569,36.883995 a 13.508122,13.508122 0 1 1 -27.0162447,0 13.508122,13.508122 0 1 1 27.0162447,0 z"
     transform="translate(208.93732,125.60888)" />
  <path
     style="color:#000000;fill:none;stroke:#000000;stroke-width:5.9000001;stroke-linecap:butt;stroke-linejoin:round;stroke-miterlimit:4;stroke-opacity:1;stroke-dasharray:none;stroke-dashoffset:0;marker:none;visibility:visible;display:inline;overflow:visible;enable-background:accumulate"
     d="m 80.803036,140.38866 c -45.611842,0 -43.611842,0 -43.611842,0"
     id="path4046-9"
     inkscape:connector-curvature="0"
     sodipodi:nodetypes="cc" />
  <path
     style="color:#000000;fill:none;stroke:#000000;stroke-width:5.9000001;stroke-linecap:butt;stroke-linejoin:round;stroke-miterlimit:4;stroke-opacity:1;stroke-dasharray:none;stroke-dashoffset:0;marker:none;visibility:visible;display:inline;overflow:visible;enable-background:accumulate"
     d="m 80.786116,184.45653 c -45.611842,0 -41.611842,0 -41.611842,0"
     id="path4046-6-4"
     inkscape:connector-curvature="0"
     inkscape:transform-center-x="23.858502"
     inkscape:transform-center-y="-45.962701"
     sodipodi:nodetypes="cc" />
  <path
     style="color:#000000;fill:none;stroke:#000000;stroke-width:5.9000001;stroke-linecap:butt;stroke-linejoin:round;stroke-miterlimit:4;stroke-opacity:1;stroke-dasharray:none;stroke-dashoffset:0;marker:none;visibility:visible;display:inline;overflow:visible;enable-background:accumulate"
     d="m 210.65701,162.02403 c -45.61184,0 -29.61184,0 -29.61184,0"
     id="path4046-8-6"
     inkscape:connector-curvature="0"
     sodipodi:nodetypes="cc" />
  <path
     sodipodi:type="arc"
     style="color:#000000;fill:#5a70db;fill-opacity:1;stroke:none;stroke-width:5.9000001;marker:none;visibility:visible;display:inline;overflow:visible;enable-background:accumulate"
     id="path4108-0"
     sodipodi:cx="17.718447"
     sodipodi:cy="15.130654"
     sodipodi:rx="11.753821"
     sodipodi:ry="11.40296"
     d="m 29.472268,15.130654 a 11.753821,11.40296 0 1 1 -23.5076426,0 11.753821,11.40296 0 1 1 23.5076426,0 z"
     transform="translate(4.649424,125.31547)" />
  <path
     sodipodi:type="arc"
     style="color:#000000;fill:#5a70db;fill-opacity:1;stroke:none;stroke-width:5.9000001;marker:none;visibility:visible;display:inline;overflow:visible;enable-background:accumulate"
     id="path4108-7-3"
     sodipodi:cx="17.718447"
     sodipodi:cy="15.130654"
     sodipodi:rx="11.753821"
     sodipodi:ry="11.40296"
     d="m 29.472268,15.130654 a 11.753821,11.40296 0 1 1 -23.5076426,0 11.753821,11.40296 0 1 1 23.5076426,0 z"
     transform="translate(5.175714,170.22558)" />
  <path
     sodipodi:type="arc"
     style="color:#000000;fill:#5a70db;fill-opacity:1;stroke:none;stroke-width:5.9000001;marker:none;visibility:visible;display:inline;overflow:visible;enable-background:accumulate"
     id="path4108-1-6"
     sodipodi:cx="17.718447"
     sodipodi:cy="15.130654"
     sodipodi:rx="11.753821"
     sodipodi:ry="11.40296"
     d="m 29.472268,15.130654 a 11.753821,11.40296 0 1 1 -23.5076426,0 11.753821,11.40296 0 1 1 23.5076426,0 z"
     transform="translate(209.02556,146.89337)" />
  <path
     sodipodi:type="arc"
     style="color:#000000;fill:none;stroke:#000000;stroke-width:5.9000001;stroke-linecap:butt;stroke-linejoin:round;stroke-miterlimit:4;stroke-opacity:1;stroke-dasharray:none;stroke-dashoffset:0;marker:none;visibility:visible;display:inline;overflow:visible;enable-background:accumulate"
     id="path4006-2-3-4-2"
     sodipodi:cx="17.718447"
     sodipodi:cy="36.883995"
     sodipodi:rx="6.1400557"
     sodipodi:ry="6.4909163"
     d="m 23.858502,36.883995 a 6.1400557,6.4909163 0 1 1 -12.280111,0 6.1400557,6.4909163 0 1 1 12.280111,0 z"
     transform="translate(157.92203,126.13428)" />
  <path
     sodipodi:type="arc"
     style="color:#000000;fill:none;stroke:#000000;stroke-width:5.9000001;stroke-linecap:butt;stroke-linejoin:round;stroke-miterlimit:4;stroke-opacity:1;stroke-dasharray:none;stroke-dashoffset:0;marker:none;visibility:visible;display:inline;overflow:visible;enable-background:accumulate"
     id="path4006-5"
     sodipodi:cx="17.718447"
     sodipodi:cy="36.883995"
     sodipodi:rx="13.508122"
     sodipodi:ry="13.508122"
     d="m 31.226569,36.883995 a 13.508122,13.508122 0 1 1 -27.0162447,0 13.508122,13.508122 0 1 1 27.0162447,0 z"
     transform="translate(6.912045,214.55197)" />
  <path
     sodipodi:type="arc"
     style="color:#000000;fill:none;stroke:#000000;stroke-width:5.9000001;stroke-linecap:butt;stroke-linejoin:round;stroke-miterlimit:4;stroke-opacity:1;stroke-dasharray:none;stroke-dashoffset:0;marker:none;visibility:visible;display:inline;overflow:visible;enable-background:accumulate"
     id="path4006-2-8"
     sodipodi:cx="17.718447"
     sodipodi:cy="36.883995"
     sodipodi:rx="13.508122"
     sodipodi:ry="13.508122"
     d="m 31.226569,36.883995 a 13.508122,13.508122 0 1 1 -27.0162447,0 13.508122,13.508122 0 1 1 27.0162447,0 z"
     transform="translate(7.438334,258.99324)" />
  <path
     sodipodi:type="arc"
     style="color:#000000;fill:none;stroke:#000000;stroke-width:5.9000001;stroke-linecap:butt;stroke-linejoin:round;stroke-miterlimit:4;stroke-opacity:1;stroke-dasharray:none;stroke-dashoffset:0;marker:none;visibility:visible;display:inline;overflow:visible;enable-background:accumulate"
     id="path4006-2-3-8"
     sodipodi:cx="17.718447"
     sodipodi:cy="36.883995"
     sodipodi:rx="13.508122"
     sodipodi:ry="13.508122"
     d="m 31.226569,36.883995 a 13.508122,13.508122 0 1 1 -27.0162447,0 13.508122,13.508122 0 1 1 27.0162447,0 z"
     transform="translate(210.93731,236.12988)" />
  <path
     style="color:#000000;fill:none;stroke:#000000;stroke-width:5.9000001;stroke-linecap:butt;stroke-linejoin:round;stroke-miterlimit:4;stroke-opacity:1;stroke-dasharray:none;stroke-dashoffset:0;marker:none;visibility:visible;display:inline;overflow:visible;enable-background:accumulate"
     d="m 90.803035,250.90967 c -45.611841,0 -51.611841,0 -51.611841,0"
     id="path4046-1"
     inkscape:connector-curvature="0"
     sodipodi:nodetypes="cc" />
  <path
     style="color:#000000;fill:none;stroke:#000000;stroke-width:5.9000001;stroke-linecap:butt;stroke-linejoin:round;stroke-miterlimit:4;stroke-opacity:1;stroke-dasharray:none;stroke-dashoffset:0;marker:none;visibility:visible;display:inline;overflow:visible;enable-background:accumulate"
     d="m 90.786115,294.97754 c -45.611841,0 -49.611841,0 -49.611841,0"
     id="path4046-6-2"
     inkscape:connector-curvature="0"
     inkscape:transform-center-x="23.858502"
     inkscape:transform-center-y="-45.962701"
     sodipodi:nodetypes="cc" />
  <path
     style="color:#000000;fill:none;stroke:#000000;stroke-width:5.9000001;stroke-linecap:butt;stroke-linejoin:round;stroke-miterlimit:4;stroke-opacity:1;stroke-dasharray:none;stroke-dashoffset:0;marker:none;visibility:visible;display:inline;overflow:visible;enable-background:accumulate"
     d="m 212.657,272.54503 c -45.61184,0 -43.61184,0 -43.61184,0"
     id="path4046-8-1"
     inkscape:connector-curvature="0"
     sodipodi:nodetypes="cc" />
  <path
     sodipodi:type="arc"
     style="color:#000000;fill:#5a70db;fill-opacity:1;stroke:none;stroke-width:5.9000001;marker:none;visibility:visible;display:inline;overflow:visible;enable-background:accumulate"
     id="path4108-4"
     sodipodi:cx="17.718447"
     sodipodi:cy="15.130654"
     sodipodi:rx="11.753821"
     sodipodi:ry="11.40296"
     d="m 29.472268,15.130654 a 11.753821,11.40296 0 1 1 -23.5076426,0 11.753821,11.40296 0 1 1 23.5076426,0 z"
     transform="translate(6.649427,235.83647)" />
  <path
     sodipodi:type="arc"
     style="color:#000000;fill:#5a70db;fill-opacity:1;stroke:none;stroke-width:5.9000001;marker:none;visibility:visible;display:inline;overflow:visible;enable-background:accumulate"
     id="path4108-7-9"
     sodipodi:cx="17.718447"
     sodipodi:cy="15.130654"
     sodipodi:rx="11.753821"
     sodipodi:ry="11.40296"
     d="m 29.472268,15.130654 a 11.753821,11.40296 0 1 1 -23.5076426,0 11.753821,11.40296 0 1 1 23.5076426,0 z"
     transform="translate(7.175716,280.74659)" />
  <path
     sodipodi:type="arc"
     style="color:#000000;fill:#5a70db;fill-opacity:1;stroke:none;stroke-width:5.9000001;marker:none;visibility:visible;display:inline;overflow:visible;enable-background:accumulate"
     id="path4108-1-8"
     sodipodi:cx="17.718447"
     sodipodi:cy="15.130654"
     sodipodi:rx="11.753821"
     sodipodi:ry="11.40296"
     d="m 29.472268,15.130654 a 11.753821,11.40296 0 1 1 -23.5076426,0 11.753821,11.40296 0 1 1 23.5076426,0 z"
     transform="translate(211.02555,257.41438)" />
</svg>
